# xmcd
#
# Track frame offsets:
#	150
#	16421
#	35860
#	47498
#	62146
#	80307
#	92113
#	106246
#	122999
#	133851
#	146496
#	162851
#	175208
#	189856
#	206267
#
# Disc length: 3004 seconds
#
# Revision: 1
# Processed by: cddbd v1.5.2PL0 Copyright (c) Steve Scherf et al.
# Submitted via: audiograbber 1.83.01
#
DISCID=ca0bba0f
DTITLE=Amy Winehouse - Back to Black
DYEAR=2008
DGENRE=Soul
TTITLE0=REHAB
TTITLE1=YOU KNOW I'M NOT GOOD
TTITLE2=ME AND MR JONES
TTITLE3=JUST FRIENDS
TTITLE4=BACK TO BLACK
TTITLE5=LOVE IS A LOSING GAME
TTITLE6=TEARS DRY ON THEIR OWN
TTITLE7=WACK UP ALONE
TTITLE8=SOME UNHOLY WAR
TTITLE9=HE CAN ONLY HOLD HER
TTITLE10=Bonus 1 REHAB - LIVE IN BERLIN
TTITLE11=Bonus 2 LOVE IS ALOSING GAME - BERLIN
TTITLE12=Bonus 3 TEARS DRY ON THEIR OWN - BERLIN
TTITLE13=Bonus 4 TAKE THE BOX - BERLIN
TTITLE14=Bonus 5 VALERIE - BERLIN
EXTD=
EXTT0=
EXTT1=
EXTT2=
EXTT3=
EXTT4=
EXTT5=
EXTT6=
EXTT7=
EXTT8=
EXTT9=
EXTT10=
EXTT11=
EXTT12=
EXTT13=
EXTT14=
PLAYORDER=
